<svg width="1920" height="1080" viewBox="0 0 1920 1080" fill="none" xmlns="http://www.w3.org/2000/svg">
<g clip-path="url(#clip0_334_2)">
<rect width="1920" height="1080" fill="black"/>
<rect x="769.945" y="368.021" width="29.1832" height="139.383" rx="14.5916" fill="#121212"/>
<ellipse cx="760.461" cy="491.124" rx="38.6678" ry="36.8451" fill="#121212"/>
<path d="M748.543 454.279H769.944V492.706C769.944 498.615 765.153 503.406 759.243 503.406V503.406C753.334 503.406 748.543 498.615 748.543 492.706V454.279Z" fill="black"/>
<rect x="717.414" y="452.565" width="35.9927" height="32.5608" fill="black"/>
<path d="M651.436 458.302C651.436 452.371 656.243 447.563 662.174 447.563H744.935V469.04H662.174C656.243 469.04 651.436 464.233 651.436 458.302V458.302Z" fill="#121212"/>
<rect x="651.436" y="415.108" width="77.2599" height="21.477" rx="10.7385" fill="#121212"/>
<path d="M651.436 392.439C651.436 386.508 656.243 381.7 662.174 381.7H748.872V403.177H662.174C656.243 403.177 651.436 398.369 651.436 392.439V392.439Z" fill="#121212"/>
<path d="M840.006 458.301C840.006 452.37 844.814 447.562 850.744 447.562H895.613V469.039H850.744C844.814 469.039 840.006 464.232 840.006 458.301V458.301Z" fill="#121212"/>
<path d="M840.006 392.439C840.006 386.508 844.814 381.7 850.744 381.7H895.613V403.177H850.744C844.814 403.177 840.006 398.369 840.006 392.439V392.439Z" fill="#121212"/>
<ellipse cx="852.115" cy="425.37" rx="41.705" ry="43.6699" fill="#121212"/>
<rect x="828.797" y="403.177" width="85.2038" height="44.3858" rx="22.1929" fill="black"/>
<path d="M28.5703 90.2805C28.5703 84.3498 33.3781 79.542 39.3088 79.542H84.177V101.019H39.3088C33.3781 101.019 28.5703 96.2112 28.5703 90.2805V90.2805Z" fill="#121212"/>
<path d="M28.5703 24.4182C28.5703 18.4875 33.3781 13.6797 39.3088 13.6797H84.177V35.1567H39.3088C33.3781 35.1567 28.5703 30.3489 28.5703 24.4182V24.4182Z" fill="#121212"/>
<ellipse cx="40.6796" cy="57.3496" rx="41.705" ry="43.6699" fill="#121212"/>
<rect x="17.3613" y="35.1562" width="85.2038" height="44.3858" rx="22.1929" fill="black"/>
<path d="M28.5703 274.29C28.5703 268.36 33.3781 263.552 39.3088 263.552H84.177V285.029H39.3088C33.3781 285.029 28.5703 280.221 28.5703 274.29V274.29Z" fill="#121212"/>
<path d="M28.5703 208.428C28.5703 202.497 33.3781 197.689 39.3088 197.689H84.177V219.166H39.3088C33.3781 219.166 28.5703 214.359 28.5703 208.428V208.428Z" fill="#121212"/>
<ellipse cx="40.6796" cy="241.359" rx="41.705" ry="43.6699" fill="#121212"/>
<rect x="17.3613" y="219.166" width="85.2038" height="44.3858" rx="22.1929" fill="black"/>
<path d="M28.5703 458.301C28.5703 452.37 33.3781 447.562 39.3088 447.562H84.177V469.039H39.3088C33.3781 469.039 28.5703 464.232 28.5703 458.301V458.301Z" fill="#121212"/>
<path d="M28.5703 392.439C28.5703 386.508 33.3781 381.7 39.3088 381.7H84.177V403.177H39.3088C33.3781 403.177 28.5703 398.369 28.5703 392.439V392.439Z" fill="#121212"/>
<ellipse cx="40.6796" cy="425.37" rx="41.705" ry="43.6699" fill="#121212"/>
<rect x="17.3613" y="403.177" width="85.2038" height="44.3858" rx="22.1929" fill="black"/>
<path d="M28.5703 642.311C28.5703 636.381 33.3781 631.573 39.3088 631.573H84.177V653.05H39.3088C33.3781 653.05 28.5703 648.242 28.5703 642.311V642.311Z" fill="#121212"/>
<path d="M28.5703 576.449C28.5703 570.518 33.3781 565.71 39.3088 565.71H84.177V587.187H39.3088C33.3781 587.187 28.5703 582.38 28.5703 576.449V576.449Z" fill="#121212"/>
<ellipse cx="40.6796" cy="609.38" rx="41.705" ry="43.6699" fill="#121212"/>
<rect x="17.3613" y="587.187" width="85.2038" height="44.3858" rx="22.1929" fill="black"/>
<path d="M28.5703 826.322C28.5703 820.392 33.3781 815.584 39.3088 815.584H84.177V837.061H39.3088C33.3781 837.061 28.5703 832.253 28.5703 826.322V826.322Z" fill="#121212"/>
<path d="M28.5703 760.46C28.5703 754.529 33.3781 749.721 39.3088 749.721H84.177V771.198H39.3088C33.3781 771.198 28.5703 766.39 28.5703 760.46V760.46Z" fill="#121212"/>
<ellipse cx="40.6796" cy="793.391" rx="41.705" ry="43.6699" fill="#121212"/>
<rect x="17.3613" y="771.198" width="85.2038" height="44.3858" rx="22.1929" fill="black"/>
<path d="M28.5703 1010.33C28.5703 1004.4 33.3781 999.595 39.3088 999.595H84.177V1021.07H39.3088C33.3781 1021.07 28.5703 1016.26 28.5703 1010.33V1010.33Z" fill="#121212"/>
<path d="M28.5703 944.471C28.5703 938.54 33.3781 933.732 39.3088 933.732H84.177V955.209H39.3088C33.3781 955.209 28.5703 950.402 28.5703 944.471V944.471Z" fill="#121212"/>
<ellipse cx="40.6796" cy="977.402" rx="41.705" ry="43.6699" fill="#121212"/>
<rect x="17.3613" y="955.209" width="85.2038" height="44.3858" rx="22.1929" fill="black"/>
<rect x="233.645" width="29.1832" height="139.383" rx="14.5916" fill="#121212"/>
<ellipse cx="224.16" cy="123.103" rx="38.6678" ry="36.8451" fill="#121212"/>
<path d="M212.242 86.2578H233.643V124.684C233.643 130.594 228.852 135.385 222.943 135.385V135.385C217.033 135.385 212.242 130.594 212.242 124.684V86.2578Z" fill="black"/>
<rect x="181.113" y="84.5439" width="35.9927" height="32.5608" fill="black"/>
<path d="M115.135 90.2815C115.135 84.3508 119.943 79.543 125.873 79.543H208.634V101.02H125.873C119.943 101.02 115.135 96.2122 115.135 90.2815V90.2815Z" fill="#121212"/>
<rect x="115.135" y="47.0879" width="77.2599" height="21.477" rx="10.7385" fill="#121212"/>
<path d="M115.135 24.4182C115.135 18.4875 119.943 13.6797 125.873 13.6797H212.571V35.1567H125.873C119.943 35.1567 115.135 30.3489 115.135 24.4182V24.4182Z" fill="#121212"/>
<path d="M303.705 90.2805C303.705 84.3498 308.513 79.542 314.444 79.542H359.312V101.019H314.444C308.513 101.019 303.705 96.2112 303.705 90.2805V90.2805Z" fill="#121212"/>
<path d="M303.705 24.4182C303.705 18.4875 308.513 13.6797 314.444 13.6797H359.312V35.1567H314.444C308.513 35.1567 303.705 30.3489 303.705 24.4182V24.4182Z" fill="#121212"/>
<ellipse cx="315.814" cy="57.3496" rx="41.705" ry="43.6699" fill="#121212"/>
<rect x="292.496" y="35.1562" width="85.2038" height="44.3858" rx="22.1929" fill="black"/>
<rect x="233.645" y="184.01" width="29.1832" height="139.383" rx="14.5916" fill="#121212"/>
<ellipse cx="224.16" cy="307.113" rx="38.6678" ry="36.8451" fill="#121212"/>
<path d="M212.242 270.268H233.643V308.694C233.643 314.604 228.852 319.394 222.943 319.394V319.394C217.033 319.394 212.242 314.604 212.242 308.694V270.268Z" fill="black"/>
<rect x="181.113" y="268.554" width="35.9927" height="32.5608" fill="black"/>
<path d="M115.135 274.291C115.135 268.361 119.943 263.553 125.873 263.553H208.634V285.03H125.873C119.943 285.03 115.135 280.222 115.135 274.291V274.291Z" fill="#121212"/>
<rect x="115.135" y="231.099" width="77.2599" height="21.477" rx="10.7385" fill="#121212"/>
<path d="M115.135 208.428C115.135 202.497 119.943 197.689 125.873 197.689H212.571V219.166H125.873C119.943 219.166 115.135 214.359 115.135 208.428V208.428Z" fill="#121212"/>
<path d="M303.705 274.29C303.705 268.36 308.513 263.552 314.444 263.552H359.312V285.029H314.444C308.513 285.029 303.705 280.221 303.705 274.29V274.29Z" fill="#121212"/>
<path d="M303.705 208.428C303.705 202.497 308.513 197.689 314.444 197.689H359.312V219.166H314.444C308.513 219.166 303.705 214.359 303.705 208.428V208.428Z" fill="#121212"/>
<ellipse cx="315.814" cy="241.359" rx="41.705" ry="43.6699" fill="#121212"/>
<rect x="292.496" y="219.166" width="85.2038" height="44.3858" rx="22.1929" fill="black"/>
<rect x="233.645" y="368.021" width="29.1832" height="139.383" rx="14.5916" fill="#121212"/>
<ellipse cx="224.16" cy="491.124" rx="38.6678" ry="36.8451" fill="#121212"/>
<path d="M212.242 454.279H233.643V492.706C233.643 498.615 228.852 503.406 222.943 503.406V503.406C217.033 503.406 212.242 498.615 212.242 492.706V454.279Z" fill="black"/>
<rect x="181.113" y="452.565" width="35.9927" height="32.5608" fill="black"/>
<path d="M115.135 458.302C115.135 452.371 119.943 447.563 125.873 447.563H208.634V469.04H125.873C119.943 469.04 115.135 464.233 115.135 458.302V458.302Z" fill="#121212"/>
<rect x="115.135" y="415.108" width="77.2599" height="21.477" rx="10.7385" fill="#121212"/>
<path d="M115.135 392.439C115.135 386.508 119.943 381.7 125.873 381.7H212.571V403.177H125.873C119.943 403.177 115.135 398.369 115.135 392.439V392.439Z" fill="#121212"/>
<path d="M303.705 458.301C303.705 452.37 308.513 447.562 314.444 447.562H359.312V469.039H314.444C308.513 469.039 303.705 464.232 303.705 458.301V458.301Z" fill="#121212"/>
<path d="M303.705 392.439C303.705 386.508 308.513 381.7 314.444 381.7H359.312V403.177H314.444C308.513 403.177 303.705 398.369 303.705 392.439V392.439Z" fill="#121212"/>
<ellipse cx="315.814" cy="425.37" rx="41.705" ry="43.6699" fill="#121212"/>
<rect x="292.496" y="403.177" width="85.2038" height="44.3858" rx="22.1929" fill="black"/>
<rect x="233.645" y="552.031" width="29.1832" height="139.383" rx="14.5916" fill="#121212"/>
<ellipse cx="224.16" cy="675.134" rx="38.6678" ry="36.8451" fill="#121212"/>
<path d="M212.242 638.289H233.643V676.715C233.643 682.625 228.852 687.416 222.943 687.416V687.416C217.033 687.416 212.242 682.625 212.242 676.715V638.289Z" fill="black"/>
<rect x="181.113" y="636.575" width="35.9927" height="32.5608" fill="black"/>
<path d="M115.135 642.312C115.135 636.382 119.943 631.574 125.873 631.574H208.634V653.051H125.873C119.943 653.051 115.135 648.243 115.135 642.312V642.312Z" fill="#121212"/>
<rect x="115.135" y="599.119" width="77.2599" height="21.477" rx="10.7385" fill="#121212"/>
<path d="M115.135 576.449C115.135 570.518 119.943 565.71 125.873 565.71H212.571V587.187H125.873C119.943 587.187 115.135 582.38 115.135 576.449V576.449Z" fill="#121212"/>
<path d="M303.705 642.311C303.705 636.381 308.513 631.573 314.444 631.573H359.312V653.05H314.444C308.513 653.05 303.705 648.242 303.705 642.311V642.311Z" fill="#121212"/>
<path d="M303.705 576.449C303.705 570.519 308.513 565.711 314.444 565.711H359.312V587.188H314.444C308.513 587.188 303.705 582.38 303.705 576.449V576.449Z" fill="#121212"/>
<ellipse cx="315.814" cy="609.381" rx="41.705" ry="43.6699" fill="#121212"/>
<rect x="292.496" y="587.188" width="85.2038" height="44.3858" rx="22.1929" fill="black"/>
<rect x="233.645" y="736.042" width="29.1832" height="139.383" rx="14.5916" fill="#121212"/>
<ellipse cx="224.16" cy="859.144" rx="38.6678" ry="36.8451" fill="#121212"/>
<path d="M212.242 822.299H233.643V860.725C233.643 866.635 228.852 871.426 222.943 871.426V871.426C217.033 871.426 212.242 866.635 212.242 860.725V822.299Z" fill="black"/>
<rect x="181.113" y="820.585" width="35.9927" height="32.5608" fill="black"/>
<path d="M115.135 826.322C115.135 820.392 119.943 815.584 125.873 815.584H208.634V837.061H125.873C119.943 837.061 115.135 832.253 115.135 826.322V826.322Z" fill="#121212"/>
<rect x="115.135" y="783.13" width="77.2599" height="21.477" rx="10.7385" fill="#121212"/>
<path d="M115.135 760.46C115.135 754.529 119.943 749.721 125.873 749.721H212.571V771.198H125.873C119.943 771.198 115.135 766.39 115.135 760.46V760.46Z" fill="#121212"/>
<path d="M303.705 826.322C303.705 820.392 308.513 815.584 314.444 815.584H359.312V837.061H314.444C308.513 837.061 303.705 832.253 303.705 826.322V826.322Z" fill="#121212"/>
<path d="M303.705 760.46C303.705 754.529 308.513 749.721 314.444 749.721H359.312V771.198H314.444C308.513 771.198 303.705 766.39 303.705 760.46V760.46Z" fill="#121212"/>
<ellipse cx="315.814" cy="793.391" rx="41.705" ry="43.6699" fill="#121212"/>
<rect x="292.496" y="771.199" width="85.2038" height="44.3858" rx="22.1929" fill="black"/>
<rect x="233.645" y="920.052" width="29.1832" height="139.383" rx="14.5916" fill="#121212"/>
<ellipse cx="224.16" cy="1043.15" rx="38.6678" ry="36.8451" fill="#121212"/>
<path d="M212.242 1006.31H233.643V1044.74C233.643 1050.65 228.852 1055.44 222.943 1055.44V1055.44C217.033 1055.44 212.242 1050.65 212.242 1044.74V1006.31Z" fill="black"/>
<rect x="181.113" y="1004.6" width="35.9927" height="32.5608" fill="black"/>
<path d="M115.135 1010.33C115.135 1004.4 119.943 999.595 125.873 999.595H208.634V1021.07H125.873C119.943 1021.07 115.135 1016.26 115.135 1010.33V1010.33Z" fill="#121212"/>
<rect x="115.135" y="967.141" width="77.2599" height="21.477" rx="10.7385" fill="#121212"/>
<path d="M115.135 944.471C115.135 938.54 119.943 933.732 125.873 933.732H212.571V955.209H125.873C119.943 955.209 115.135 950.402 115.135 944.471V944.471Z" fill="#121212"/>
<path d="M303.705 1010.33C303.705 1004.4 308.513 999.595 314.444 999.595H359.312V1021.07H314.444C308.513 1021.07 303.705 1016.26 303.705 1010.33V1010.33Z" fill="#121212"/>
<path d="M303.705 944.47C303.705 938.54 308.513 933.732 314.444 933.732H359.312V955.209H314.444C308.513 955.209 303.705 950.401 303.705 944.47V944.47Z" fill="#121212"/>
<ellipse cx="315.814" cy="977.402" rx="41.705" ry="43.6699" fill="#121212"/>
<rect x="292.496" y="955.209" width="85.2038" height="44.3858" rx="22.1929" fill="black"/>
<rect x="504.59" width="29.1832" height="139.383" rx="14.5916" fill="#121212"/>
<ellipse cx="495.105" cy="123.103" rx="38.6678" ry="36.8451" fill="#121212"/>
<path d="M483.188 86.2578H504.589V124.684C504.589 130.594 499.798 135.385 493.888 135.385V135.385C487.978 135.385 483.188 130.594 483.188 124.684V86.2578Z" fill="black"/>
<rect x="452.059" y="84.5439" width="35.9927" height="32.5608" fill="black"/>
<path d="M386.078 90.2815C386.078 84.3508 390.886 79.543 396.817 79.543H479.577V101.02H396.817C390.886 101.02 386.078 96.2122 386.078 90.2815V90.2815Z" fill="#121212"/>
<rect x="386.078" y="47.0879" width="77.2599" height="21.477" rx="10.7385" fill="#121212"/>
<path d="M386.078 24.4182C386.078 18.4875 390.886 13.6797 396.817 13.6797H483.514V35.1567H396.817C390.886 35.1567 386.078 30.3489 386.078 24.4182V24.4182Z" fill="#121212"/>
<path d="M574.65 90.2805C574.65 84.3498 579.458 79.542 585.389 79.542H630.257V101.019H585.389C579.458 101.019 574.65 96.2112 574.65 90.2805V90.2805Z" fill="#121212"/>
<path d="M574.65 24.4182C574.65 18.4875 579.458 13.6797 585.389 13.6797H630.257V35.1567H585.389C579.458 35.1567 574.65 30.3489 574.65 24.4182V24.4182Z" fill="#121212"/>
<ellipse cx="586.76" cy="57.3496" rx="41.705" ry="43.6699" fill="#121212"/>
<rect x="563.441" y="35.1562" width="85.2038" height="44.3858" rx="22.1929" fill="black"/>
<rect x="504.59" y="184.01" width="29.1832" height="139.383" rx="14.5916" fill="#121212"/>
<ellipse cx="495.105" cy="307.113" rx="38.6678" ry="36.8451" fill="#121212"/>
<path d="M483.188 270.268H504.589V308.694C504.589 314.604 499.798 319.394 493.888 319.394V319.394C487.978 319.394 483.188 314.604 483.188 308.694V270.268Z" fill="black"/>
<rect x="452.059" y="268.554" width="35.9927" height="32.5608" fill="black"/>
<path d="M386.078 274.291C386.078 268.361 390.886 263.553 396.817 263.553H479.577V285.03H396.817C390.886 285.03 386.078 280.222 386.078 274.291V274.291Z" fill="#121212"/>
<rect x="386.078" y="231.098" width="77.2599" height="21.477" rx="10.7385" fill="#121212"/>
<path d="M386.078 208.428C386.078 202.497 390.886 197.689 396.817 197.689H483.514V219.166H396.817C390.886 219.166 386.078 214.359 386.078 208.428V208.428Z" fill="#121212"/>
<path d="M574.65 274.29C574.65 268.36 579.458 263.552 585.389 263.552H630.257V285.029H585.389C579.458 285.029 574.65 280.221 574.65 274.29V274.29Z" fill="#121212"/>
<path d="M574.65 208.428C574.65 202.497 579.458 197.689 585.389 197.689H630.257V219.166H585.389C579.458 219.166 574.65 214.359 574.65 208.428V208.428Z" fill="#121212"/>
<ellipse cx="586.76" cy="241.359" rx="41.705" ry="43.6699" fill="#121212"/>
<rect x="563.441" y="219.166" width="85.2038" height="44.3858" rx="22.1929" fill="black"/>
<rect x="504.59" y="368.021" width="29.1832" height="139.383" rx="14.5916" fill="#121212"/>
<ellipse cx="495.105" cy="491.124" rx="38.6678" ry="36.8451" fill="#121212"/>
<path d="M483.188 454.279H504.589V492.706C504.589 498.615 499.798 503.406 493.888 503.406V503.406C487.978 503.406 483.188 498.615 483.188 492.706V454.279Z" fill="black"/>
<rect x="452.059" y="452.565" width="35.9927" height="32.5608" fill="black"/>
<path d="M386.078 458.302C386.078 452.371 390.886 447.563 396.817 447.563H479.577V469.04H396.817C390.886 469.04 386.078 464.233 386.078 458.302V458.302Z" fill="#121212"/>
<rect x="386.078" y="415.108" width="77.2599" height="21.477" rx="10.7385" fill="#121212"/>
<path d="M386.078 392.439C386.078 386.508 390.886 381.7 396.817 381.7H483.514V403.177H396.817C390.886 403.177 386.078 398.369 386.078 392.439V392.439Z" fill="#121212"/>
<path d="M574.65 458.301C574.65 452.37 579.458 447.562 585.389 447.562H630.257V469.039H585.389C579.458 469.039 574.65 464.232 574.65 458.301V458.301Z" fill="#121212"/>
<path d="M574.65 392.439C574.65 386.508 579.458 381.7 585.389 381.7H630.257V403.177H585.389C579.458 403.177 574.65 398.369 574.65 392.439V392.439Z" fill="#121212"/>
<ellipse cx="586.76" cy="425.37" rx="41.705" ry="43.6699" fill="#121212"/>
<rect x="563.441" y="403.177" width="85.2038" height="44.3858" rx="22.1929" fill="black"/>
<rect x="504.59" y="552.032" width="29.1832" height="139.383" rx="14.5916" fill="#121212"/>
<ellipse cx="495.105" cy="675.135" rx="38.6678" ry="36.8451" fill="#121212"/>
<path d="M483.188 638.29H504.589V676.716C504.589 682.626 499.798 687.416 493.888 687.416V687.416C487.978 687.416 483.188 682.626 483.188 676.716V638.29Z" fill="black"/>
<rect x="452.059" y="636.576" width="35.9927" height="32.5608" fill="black"/>
<path d="M386.078 642.313C386.078 636.382 390.886 631.574 396.817 631.574H479.577V653.051H396.817C390.886 653.051 386.078 648.243 386.078 642.313V642.313Z" fill="#121212"/>
<rect x="386.078" y="599.12" width="77.2599" height="21.477" rx="10.7385" fill="#121212"/>
<path d="M386.078 576.449C386.078 570.519 390.886 565.711 396.817 565.711H483.514V587.188H396.817C390.886 587.188 386.078 582.38 386.078 576.449V576.449Z" fill="#121212"/>
<path d="M574.65 642.311C574.65 636.381 579.458 631.573 585.389 631.573H630.257V653.05H585.389C579.458 653.05 574.65 648.242 574.65 642.311V642.311Z" fill="#121212"/>
<path d="M574.65 576.449C574.65 570.519 579.458 565.711 585.389 565.711H630.257V587.188H585.389C579.458 587.188 574.65 582.38 574.65 576.449V576.449Z" fill="#121212"/>
<ellipse cx="586.76" cy="609.381" rx="41.705" ry="43.6699" fill="#121212"/>
<rect x="563.441" y="587.188" width="85.2038" height="44.3858" rx="22.1929" fill="black"/>
<rect x="504.59" y="736.042" width="29.1832" height="139.383" rx="14.5916" fill="#121212"/>
<ellipse cx="495.105" cy="859.144" rx="38.6678" ry="36.8451" fill="#121212"/>
<path d="M483.188 822.299H504.589V860.725C504.589 866.635 499.798 871.426 493.888 871.426V871.426C487.978 871.426 483.188 866.635 483.188 860.725V822.299Z" fill="black"/>
<rect x="452.059" y="820.585" width="35.9927" height="32.5608" fill="black"/>
<path d="M386.078 826.322C386.078 820.392 390.886 815.584 396.817 815.584H479.577V837.061H396.817C390.886 837.061 386.078 832.253 386.078 826.322V826.322Z" fill="#121212"/>
<rect x="386.078" y="783.13" width="77.2599" height="21.477" rx="10.7385" fill="#121212"/>
<path d="M386.078 760.46C386.078 754.529 390.886 749.721 396.817 749.721H483.514V771.198H396.817C390.886 771.198 386.078 766.39 386.078 760.46V760.46Z" fill="#121212"/>
<path d="M574.65 826.322C574.65 820.392 579.458 815.584 585.389 815.584H630.257V837.061H585.389C579.458 837.061 574.65 832.253 574.65 826.322V826.322Z" fill="#121212"/>
<path d="M574.65 760.46C574.65 754.529 579.458 749.721 585.389 749.721H630.257V771.198H585.389C579.458 771.198 574.65 766.39 574.65 760.46V760.46Z" fill="#121212"/>
<ellipse cx="586.76" cy="793.391" rx="41.705" ry="43.6699" fill="#121212"/>
<rect x="563.441" y="771.199" width="85.2038" height="44.3858" rx="22.1929" fill="black"/>
<rect x="504.59" y="920.053" width="29.1832" height="139.383" rx="14.5916" fill="#121212"/>
<ellipse cx="495.105" cy="1043.16" rx="38.6678" ry="36.8451" fill="#121212"/>
<path d="M483.188 1006.31H504.589V1044.74C504.589 1050.65 499.798 1055.44 493.888 1055.44V1055.44C487.978 1055.44 483.188 1050.65 483.188 1044.74V1006.31Z" fill="black"/>
<rect x="452.059" y="1004.6" width="35.9927" height="32.5608" fill="black"/>
<path d="M386.078 1010.33C386.078 1004.4 390.886 999.595 396.817 999.595H479.577V1021.07H396.817C390.886 1021.07 386.078 1016.26 386.078 1010.33V1010.33Z" fill="#121212"/>
<rect x="386.078" y="967.141" width="77.2599" height="21.477" rx="10.7385" fill="#121212"/>
<path d="M386.078 944.471C386.078 938.54 390.886 933.732 396.817 933.732H483.514V955.209H396.817C390.886 955.209 386.078 950.402 386.078 944.471V944.471Z" fill="#121212"/>
<path d="M574.65 1010.33C574.65 1004.4 579.458 999.595 585.389 999.595H630.257V1021.07H585.389C579.458 1021.07 574.65 1016.26 574.65 1010.33V1010.33Z" fill="#121212"/>
<path d="M574.65 944.471C574.65 938.54 579.458 933.732 585.389 933.732H630.257V955.209H585.389C579.458 955.209 574.65 950.402 574.65 944.471V944.471Z" fill="#121212"/>
<ellipse cx="586.76" cy="977.402" rx="41.705" ry="43.6699" fill="#121212"/>
<rect x="563.441" y="955.21" width="85.2038" height="44.3858" rx="22.1929" fill="black"/>
<rect x="769.945" width="29.1832" height="139.383" rx="14.5916" fill="#121212"/>
<ellipse cx="760.461" cy="123.103" rx="38.6678" ry="36.8451" fill="#121212"/>
<path d="M748.543 86.2578H769.944V124.684C769.944 130.594 765.153 135.385 759.243 135.385V135.385C753.334 135.385 748.543 130.594 748.543 124.684V86.2578Z" fill="black"/>
<rect x="717.414" y="84.5439" width="35.9927" height="32.5608" fill="black"/>
<path d="M651.436 90.2815C651.436 84.3508 656.243 79.543 662.174 79.543H744.935V101.02H662.174C656.243 101.02 651.436 96.2122 651.436 90.2815V90.2815Z" fill="#121212"/>
<rect x="651.436" y="47.0879" width="77.2599" height="21.477" rx="10.7385" fill="#121212"/>
<path d="M651.436 24.4182C651.436 18.4875 656.243 13.6797 662.174 13.6797H748.872V35.1567H662.174C656.243 35.1567 651.436 30.3489 651.436 24.4182V24.4182Z" fill="#121212"/>
<path d="M840.006 90.2805C840.006 84.3498 844.814 79.542 850.744 79.542H895.613V101.019H850.744C844.814 101.019 840.006 96.2112 840.006 90.2805V90.2805Z" fill="#121212"/>
<path d="M840.006 24.4182C840.006 18.4875 844.814 13.6797 850.744 13.6797H895.613V35.1567H850.744C844.814 35.1567 840.006 30.3489 840.006 24.4182V24.4182Z" fill="#121212"/>
<ellipse cx="852.115" cy="57.3496" rx="41.705" ry="43.6699" fill="#121212"/>
<rect x="828.797" y="35.1562" width="85.2038" height="44.3858" rx="22.1929" fill="black"/>
<rect x="769.945" y="184.01" width="29.1832" height="139.383" rx="14.5916" fill="#121212"/>
<ellipse cx="760.461" cy="307.113" rx="38.6678" ry="36.8451" fill="#121212"/>
<path d="M748.543 270.268H769.944V308.694C769.944 314.604 765.153 319.394 759.243 319.394V319.394C753.334 319.394 748.543 314.604 748.543 308.694V270.268Z" fill="black"/>
<rect x="717.414" y="268.554" width="35.9927" height="32.5608" fill="black"/>
<path d="M651.436 274.291C651.436 268.361 656.243 263.553 662.174 263.553H744.935V285.03H662.174C656.243 285.03 651.436 280.222 651.436 274.291V274.291Z" fill="#121212"/>
<rect x="651.436" y="231.098" width="77.2599" height="21.477" rx="10.7385" fill="#121212"/>
<path d="M651.436 208.428C651.436 202.497 656.243 197.689 662.174 197.689H748.872V219.166H662.174C656.243 219.166 651.436 214.359 651.436 208.428V208.428Z" fill="#121212"/>
<path d="M840.006 274.29C840.006 268.36 844.814 263.552 850.744 263.552H895.613V285.029H850.744C844.814 285.029 840.006 280.221 840.006 274.29V274.29Z" fill="#121212"/>
<path d="M840.006 208.428C840.006 202.497 844.814 197.689 850.744 197.689H895.613V219.166H850.744C844.814 219.166 840.006 214.359 840.006 208.428V208.428Z" fill="#121212"/>
<ellipse cx="852.115" cy="241.359" rx="41.705" ry="43.6699" fill="#121212"/>
<rect x="828.797" y="219.166" width="85.2038" height="44.3858" rx="22.1929" fill="black"/>
<rect x="769.947" y="552.031" width="29.1832" height="139.383" rx="14.5916" fill="#121212"/>
<ellipse cx="760.463" cy="675.134" rx="38.6678" ry="36.8451" fill="#121212"/>
<path d="M748.545 638.289H769.946V676.715C769.946 682.625 765.155 687.416 759.245 687.416V687.416C753.336 687.416 748.545 682.625 748.545 676.715V638.289Z" fill="black"/>
<rect x="717.416" y="636.575" width="35.9927" height="32.5608" fill="black"/>
<path d="M651.436 642.312C651.436 636.382 656.243 631.574 662.174 631.574H744.935V653.051H662.174C656.243 653.051 651.436 648.243 651.436 642.312V642.312Z" fill="#121212"/>
<rect x="651.436" y="599.119" width="77.2599" height="21.477" rx="10.7385" fill="#121212"/>
<path d="M651.436 576.449C651.436 570.518 656.243 565.71 662.174 565.71H748.872V587.187H662.174C656.243 587.187 651.436 582.38 651.436 576.449V576.449Z" fill="#121212"/>
<path d="M840.006 642.311C840.006 636.381 844.814 631.573 850.744 631.573H895.613V653.05H850.744C844.814 653.05 840.006 648.242 840.006 642.311V642.311Z" fill="#121212"/>
<path d="M840.006 576.449C840.006 570.519 844.814 565.711 850.744 565.711H895.613V587.188H850.744C844.814 587.188 840.006 582.38 840.006 576.449V576.449Z" fill="#121212"/>
<ellipse cx="852.115" cy="609.381" rx="41.705" ry="43.6699" fill="#121212"/>
<rect x="828.797" y="587.188" width="85.2038" height="44.3858" rx="22.1929" fill="black"/>
<rect x="769.945" y="736.042" width="29.1832" height="139.383" rx="14.5916" fill="#121212"/>
<ellipse cx="760.461" cy="859.144" rx="38.6678" ry="36.8451" fill="#121212"/>
<path d="M748.543 822.299H769.944V860.725C769.944 866.635 765.153 871.426 759.243 871.426V871.426C753.334 871.426 748.543 866.635 748.543 860.725V822.299Z" fill="black"/>
<rect x="717.414" y="820.585" width="35.9927" height="32.5608" fill="black"/>
<path d="M651.436 826.322C651.436 820.392 656.243 815.584 662.174 815.584H744.935V837.061H662.174C656.243 837.061 651.436 832.253 651.436 826.322V826.322Z" fill="#121212"/>
<rect x="651.436" y="783.13" width="77.2599" height="21.477" rx="10.7385" fill="#121212"/>
<path d="M651.436 760.46C651.436 754.529 656.243 749.721 662.174 749.721H748.872V771.198H662.174C656.243 771.198 651.436 766.39 651.436 760.46V760.46Z" fill="#121212"/>
<path d="M840.006 826.322C840.006 820.392 844.814 815.584 850.744 815.584H895.613V837.061H850.744C844.814 837.061 840.006 832.253 840.006 826.322V826.322Z" fill="#121212"/>
<path d="M840.006 760.46C840.006 754.529 844.814 749.721 850.744 749.721H895.613V771.198H850.744C844.814 771.198 840.006 766.39 840.006 760.46V760.46Z" fill="#121212"/>
<ellipse cx="852.115" cy="793.391" rx="41.705" ry="43.6699" fill="#121212"/>
<rect x="828.797" y="771.199" width="85.2038" height="44.3858" rx="22.1929" fill="black"/>
<rect x="769.947" y="920.052" width="29.1832" height="139.383" rx="14.5916" fill="#121212"/>
<ellipse cx="760.463" cy="1043.15" rx="38.6678" ry="36.8451" fill="#121212"/>
<path d="M748.545 1006.31H769.946V1044.74C769.946 1050.65 765.155 1055.44 759.245 1055.44V1055.44C753.336 1055.44 748.545 1050.65 748.545 1044.74V1006.31Z" fill="black"/>
<rect x="717.416" y="1004.6" width="35.9927" height="32.5608" fill="black"/>
<path d="M651.436 1010.33C651.436 1004.4 656.243 999.595 662.174 999.595H744.935V1021.07H662.174C656.243 1021.07 651.436 1016.26 651.436 1010.33V1010.33Z" fill="#121212"/>
<rect x="651.436" y="967.141" width="77.2599" height="21.477" rx="10.7385" fill="#121212"/>
<path d="M651.436 944.471C651.436 938.54 656.243 933.732 662.174 933.732H748.872V955.209H662.174C656.243 955.209 651.436 950.402 651.436 944.471V944.471Z" fill="#121212"/>
<path d="M840.006 1010.33C840.006 1004.4 844.814 999.595 850.744 999.595H895.613V1021.07H850.744C844.814 1021.07 840.006 1016.26 840.006 1010.33V1010.33Z" fill="#121212"/>
<path d="M840.006 944.47C840.006 938.54 844.814 933.732 850.744 933.732H895.613V955.209H850.744C844.814 955.209 840.006 950.401 840.006 944.47V944.47Z" fill="#121212"/>
<ellipse cx="852.115" cy="977.402" rx="41.705" ry="43.6699" fill="#121212"/>
<rect x="828.797" y="955.209" width="85.2038" height="44.3858" rx="22.1929" fill="black"/>
<rect x="1843.95" y="368.021" width="29.1832" height="139.383" rx="14.5916" fill="#121212"/>
<ellipse cx="1834.46" cy="491.124" rx="38.6678" ry="36.8451" fill="#121212"/>
<path d="M1822.54 454.279H1843.95V492.706C1843.95 498.615 1839.16 503.406 1833.25 503.406V503.406C1827.34 503.406 1822.54 498.615 1822.54 492.706V454.279Z" fill="black"/>
<rect x="1791.42" y="452.565" width="35.9927" height="32.5608" fill="black"/>
<path d="M1725.44 458.302C1725.44 452.371 1730.25 447.563 1736.18 447.563H1818.94V469.04H1736.18C1730.25 469.04 1725.44 464.233 1725.44 458.302V458.302Z" fill="#121212"/>
<rect x="1725.44" y="415.108" width="77.2599" height="21.477" rx="10.7385" fill="#121212"/>
<path d="M1725.44 392.439C1725.44 386.508 1730.25 381.7 1736.18 381.7H1822.87V403.177H1736.18C1730.25 403.177 1725.44 398.369 1725.44 392.439V392.439Z" fill="#121212"/>
<path d="M1914.01 458.301C1914.01 452.37 1918.82 447.562 1924.75 447.562H1969.61V469.039H1924.75C1918.82 469.039 1914.01 464.232 1914.01 458.301V458.301Z" fill="#121212"/>
<path d="M1914.01 392.439C1914.01 386.508 1918.82 381.7 1924.75 381.7H1969.61V403.177H1924.75C1918.82 403.177 1914.01 398.369 1914.01 392.439V392.439Z" fill="#121212"/>
<ellipse cx="1926.12" cy="425.37" rx="41.705" ry="43.6699" fill="#121212"/>
<rect x="1902.8" y="403.177" width="85.2038" height="44.3858" rx="22.1929" fill="black"/>
<rect x="1032.51" width="29.1832" height="139.383" rx="14.5916" fill="#121212"/>
<ellipse cx="1023.03" cy="123.103" rx="38.6678" ry="36.8451" fill="#121212"/>
<path d="M1011.11 86.2578H1032.51V124.684C1032.51 130.594 1027.72 135.385 1021.81 135.385V135.385C1015.9 135.385 1011.11 130.594 1011.11 124.684V86.2578Z" fill="black"/>
<rect x="979.98" y="84.5439" width="35.9927" height="32.5608" fill="black"/>
<path d="M914 90.2815C914 84.3508 918.808 79.543 924.738 79.543H1007.5V101.02H924.738C918.808 101.02 914 96.2122 914 90.2815V90.2815Z" fill="#121212"/>
<rect x="914" y="47.0879" width="77.2599" height="21.477" rx="10.7385" fill="#121212"/>
<path d="M914 24.4182C914 18.4875 918.808 13.6797 924.738 13.6797H1011.44V35.1567H924.738C918.808 35.1567 914 30.3489 914 24.4182V24.4182Z" fill="#121212"/>
<path d="M1102.57 90.2805C1102.57 84.3498 1107.38 79.542 1113.31 79.542H1158.18V101.019H1113.31C1107.38 101.019 1102.57 96.2112 1102.57 90.2805V90.2805Z" fill="#121212"/>
<path d="M1102.57 24.4182C1102.57 18.4875 1107.38 13.6797 1113.31 13.6797H1158.18V35.1567H1113.31C1107.38 35.1567 1102.57 30.3489 1102.57 24.4182V24.4182Z" fill="#121212"/>
<ellipse cx="1114.68" cy="57.3496" rx="41.705" ry="43.6699" fill="#121212"/>
<rect x="1091.36" y="35.1562" width="85.2038" height="44.3858" rx="22.1929" fill="black"/>
<rect x="1032.51" y="184.01" width="29.1832" height="139.383" rx="14.5916" fill="#121212"/>
<ellipse cx="1023.03" cy="307.113" rx="38.6678" ry="36.8451" fill="#121212"/>
<path d="M1011.11 270.268H1032.51V308.694C1032.51 314.604 1027.72 319.394 1021.81 319.394V319.394C1015.9 319.394 1011.11 314.604 1011.11 308.694V270.268Z" fill="black"/>
<rect x="979.98" y="268.554" width="35.9927" height="32.5608" fill="black"/>
<path d="M914 274.291C914 268.361 918.808 263.553 924.738 263.553H1007.5V285.03H924.738C918.808 285.03 914 280.222 914 274.291V274.291Z" fill="#121212"/>
<rect x="914" y="231.099" width="77.2599" height="21.477" rx="10.7385" fill="#121212"/>
<path d="M914 208.428C914 202.497 918.808 197.689 924.738 197.689H1011.44V219.166H924.738C918.808 219.166 914 214.359 914 208.428V208.428Z" fill="#121212"/>
<path d="M1102.57 274.29C1102.57 268.36 1107.38 263.552 1113.31 263.552H1158.18V285.029H1113.31C1107.38 285.029 1102.57 280.221 1102.57 274.29V274.29Z" fill="#121212"/>
<path d="M1102.57 208.428C1102.57 202.497 1107.38 197.689 1113.31 197.689H1158.18V219.166H1113.31C1107.38 219.166 1102.57 214.359 1102.57 208.428V208.428Z" fill="#121212"/>
<ellipse cx="1114.68" cy="241.359" rx="41.705" ry="43.6699" fill="#121212"/>
<rect x="1091.36" y="219.166" width="85.2038" height="44.3858" rx="22.1929" fill="black"/>
<rect x="1032.51" y="368.021" width="29.1832" height="139.383" rx="14.5916" fill="#121212"/>
<ellipse cx="1023.03" cy="491.124" rx="38.6678" ry="36.8451" fill="#121212"/>
<path d="M1011.11 454.279H1032.51V492.706C1032.51 498.615 1027.72 503.406 1021.81 503.406V503.406C1015.9 503.406 1011.11 498.615 1011.11 492.706V454.279Z" fill="black"/>
<rect x="979.98" y="452.565" width="35.9927" height="32.5608" fill="black"/>
<path d="M914 458.302C914 452.371 918.808 447.563 924.738 447.563H1007.5V469.04H924.738C918.808 469.04 914 464.233 914 458.302V458.302Z" fill="#121212"/>
<rect x="914" y="415.108" width="77.2599" height="21.477" rx="10.7385" fill="#121212"/>
<path d="M914 392.439C914 386.508 918.808 381.7 924.738 381.7H1011.44V403.177H924.738C918.808 403.177 914 398.369 914 392.439V392.439Z" fill="#121212"/>
<path d="M1102.57 458.301C1102.57 452.37 1107.38 447.562 1113.31 447.562H1158.18V469.039H1113.31C1107.38 469.039 1102.57 464.232 1102.57 458.301V458.301Z" fill="#121212"/>
<path d="M1102.57 392.439C1102.57 386.508 1107.38 381.7 1113.31 381.7H1158.18V403.177H1113.31C1107.38 403.177 1102.57 398.369 1102.57 392.439V392.439Z" fill="#121212"/>
<ellipse cx="1114.68" cy="425.37" rx="41.705" ry="43.6699" fill="#121212"/>
<rect x="1091.36" y="403.177" width="85.2038" height="44.3858" rx="22.1929" fill="black"/>
<rect x="1032.51" y="552.031" width="29.1832" height="139.383" rx="14.5916" fill="#121212"/>
<ellipse cx="1023.03" cy="675.134" rx="38.6678" ry="36.8451" fill="#121212"/>
<path d="M1011.11 638.289H1032.51V676.715C1032.51 682.625 1027.72 687.416 1021.81 687.416V687.416C1015.9 687.416 1011.11 682.625 1011.11 676.715V638.289Z" fill="black"/>
<rect x="979.98" y="636.575" width="35.9927" height="32.5608" fill="black"/>
<path d="M914 642.312C914 636.382 918.808 631.574 924.738 631.574H1007.5V653.051H924.738C918.808 653.051 914 648.243 914 642.312V642.312Z" fill="#121212"/>
<rect x="914" y="599.119" width="77.2599" height="21.477" rx="10.7385" fill="#121212"/>
<path d="M914 576.449C914 570.518 918.808 565.71 924.738 565.71H1011.44V587.187H924.738C918.808 587.187 914 582.38 914 576.449V576.449Z" fill="#121212"/>
<path d="M1102.57 642.311C1102.57 636.381 1107.38 631.573 1113.31 631.573H1158.18V653.05H1113.31C1107.38 653.05 1102.57 648.242 1102.57 642.311V642.311Z" fill="#121212"/>
<path d="M1102.57 576.449C1102.57 570.518 1107.38 565.71 1113.31 565.71H1158.18V587.187H1113.31C1107.38 587.187 1102.57 582.38 1102.57 576.449V576.449Z" fill="#121212"/>
<ellipse cx="1114.68" cy="609.38" rx="41.705" ry="43.6699" fill="#121212"/>
<rect x="1091.36" y="587.187" width="85.2038" height="44.3858" rx="22.1929" fill="black"/>
<rect x="1032.51" y="736.042" width="29.1832" height="139.383" rx="14.5916" fill="#121212"/>
<ellipse cx="1023.03" cy="859.144" rx="38.6678" ry="36.8451" fill="#121212"/>
<path d="M1011.11 822.299H1032.51V860.725C1032.51 866.635 1027.72 871.426 1021.81 871.426V871.426C1015.9 871.426 1011.11 866.635 1011.11 860.725V822.299Z" fill="black"/>
<rect x="979.98" y="820.585" width="35.9927" height="32.5608" fill="black"/>
<path d="M914 826.322C914 820.392 918.808 815.584 924.738 815.584H1007.5V837.061H924.738C918.808 837.061 914 832.253 914 826.322V826.322Z" fill="#121212"/>
<rect x="914" y="783.13" width="77.2599" height="21.477" rx="10.7385" fill="#121212"/>
<path d="M914 760.46C914 754.529 918.808 749.721 924.738 749.721H1011.44V771.198H924.738C918.808 771.198 914 766.39 914 760.46V760.46Z" fill="#121212"/>
<path d="M1102.57 826.322C1102.57 820.392 1107.38 815.584 1113.31 815.584H1158.18V837.061H1113.31C1107.38 837.061 1102.57 832.253 1102.57 826.322V826.322Z" fill="#121212"/>
<path d="M1102.57 760.46C1102.57 754.529 1107.38 749.721 1113.31 749.721H1158.18V771.198H1113.31C1107.38 771.198 1102.57 766.39 1102.57 760.46V760.46Z" fill="#121212"/>
<ellipse cx="1114.68" cy="793.391" rx="41.705" ry="43.6699" fill="#121212"/>
<rect x="1091.36" y="771.198" width="85.2038" height="44.3858" rx="22.1929" fill="black"/>
<rect x="1032.51" y="920.052" width="29.1832" height="139.383" rx="14.5916" fill="#121212"/>
<ellipse cx="1023.03" cy="1043.15" rx="38.6678" ry="36.8451" fill="#121212"/>
<path d="M1011.11 1006.31H1032.51V1044.74C1032.51 1050.65 1027.72 1055.44 1021.81 1055.44V1055.44C1015.9 1055.44 1011.11 1050.65 1011.11 1044.74V1006.31Z" fill="black"/>
<rect x="979.98" y="1004.6" width="35.9927" height="32.5608" fill="black"/>
<path d="M914 1010.33C914 1004.4 918.808 999.595 924.738 999.595H1007.5V1021.07H924.738C918.808 1021.07 914 1016.26 914 1010.33V1010.33Z" fill="#121212"/>
<rect x="914" y="967.141" width="77.2599" height="21.477" rx="10.7385" fill="#121212"/>
<path d="M914 944.471C914 938.54 918.808 933.732 924.738 933.732H1011.44V955.209H924.738C918.808 955.209 914 950.402 914 944.471V944.471Z" fill="#121212"/>
<path d="M1102.57 1010.33C1102.57 1004.4 1107.38 999.595 1113.31 999.595H1158.18V1021.07H1113.31C1107.38 1021.07 1102.57 1016.26 1102.57 1010.33V1010.33Z" fill="#121212"/>
<path d="M1102.57 944.471C1102.57 938.54 1107.38 933.732 1113.31 933.732H1158.18V955.209H1113.31C1107.38 955.209 1102.57 950.402 1102.57 944.471V944.471Z" fill="#121212"/>
<ellipse cx="1114.68" cy="977.402" rx="41.705" ry="43.6699" fill="#121212"/>
<rect x="1091.36" y="955.209" width="85.2038" height="44.3858" rx="22.1929" fill="black"/>
<rect x="1307.64" width="29.1832" height="139.383" rx="14.5916" fill="#121212"/>
<ellipse cx="1298.16" cy="123.103" rx="38.6678" ry="36.8451" fill="#121212"/>
<path d="M1286.24 86.2578H1307.64V124.684C1307.64 130.594 1302.85 135.385 1296.94 135.385V135.385C1291.03 135.385 1286.24 130.594 1286.24 124.684V86.2578Z" fill="black"/>
<rect x="1255.11" y="84.5439" width="35.9927" height="32.5608" fill="black"/>
<path d="M1189.13 90.2815C1189.13 84.3508 1193.94 79.543 1199.87 79.543H1282.63V101.02H1199.87C1193.94 101.02 1189.13 96.2122 1189.13 90.2815V90.2815Z" fill="#121212"/>
<rect x="1189.13" y="47.0879" width="77.2599" height="21.477" rx="10.7385" fill="#121212"/>
<path d="M1189.13 24.4182C1189.13 18.4875 1193.94 13.6797 1199.87 13.6797H1286.57V35.1567H1199.87C1193.94 35.1567 1189.13 30.3489 1189.13 24.4182V24.4182Z" fill="#121212"/>
<path d="M1377.71 90.2805C1377.71 84.3498 1382.51 79.542 1388.44 79.542H1433.31V101.019H1388.44C1382.51 101.019 1377.71 96.2112 1377.71 90.2805V90.2805Z" fill="#121212"/>
<path d="M1377.71 24.4182C1377.71 18.4875 1382.51 13.6797 1388.44 13.6797H1433.31V35.1567H1388.44C1382.51 35.1567 1377.71 30.3489 1377.71 24.4182V24.4182Z" fill="#121212"/>
<ellipse cx="1389.81" cy="57.3496" rx="41.705" ry="43.6699" fill="#121212"/>
<rect x="1366.5" y="35.1562" width="85.2038" height="44.3858" rx="22.1929" fill="black"/>
<rect x="1307.64" y="184.01" width="29.1832" height="139.383" rx="14.5916" fill="#121212"/>
<ellipse cx="1298.16" cy="307.113" rx="38.6678" ry="36.8451" fill="#121212"/>
<path d="M1286.24 270.268H1307.64V308.694C1307.64 314.604 1302.85 319.394 1296.94 319.394V319.394C1291.03 319.394 1286.24 314.604 1286.24 308.694V270.268Z" fill="black"/>
<rect x="1255.11" y="268.554" width="35.9927" height="32.5608" fill="black"/>
<path d="M1189.13 274.291C1189.13 268.361 1193.94 263.553 1199.87 263.553H1282.63V285.03H1199.87C1193.94 285.03 1189.13 280.222 1189.13 274.291V274.291Z" fill="#121212"/>
<rect x="1189.13" y="231.099" width="77.2599" height="21.477" rx="10.7385" fill="#121212"/>
<path d="M1189.13 208.428C1189.13 202.497 1193.94 197.689 1199.87 197.689H1286.57V219.166H1199.87C1193.94 219.166 1189.13 214.359 1189.13 208.428V208.428Z" fill="#121212"/>
<path d="M1377.71 274.29C1377.71 268.36 1382.51 263.552 1388.44 263.552H1433.31V285.029H1388.44C1382.51 285.029 1377.71 280.221 1377.71 274.29V274.29Z" fill="#121212"/>
<path d="M1377.71 208.428C1377.71 202.497 1382.51 197.689 1388.44 197.689H1433.31V219.166H1388.44C1382.51 219.166 1377.71 214.359 1377.71 208.428V208.428Z" fill="#121212"/>
<ellipse cx="1389.81" cy="241.359" rx="41.705" ry="43.6699" fill="#121212"/>
<rect x="1366.5" y="219.166" width="85.2038" height="44.3858" rx="22.1929" fill="black"/>
<rect x="1307.64" y="368.021" width="29.1832" height="139.383" rx="14.5916" fill="#121212"/>
<ellipse cx="1298.16" cy="491.124" rx="38.6678" ry="36.8451" fill="#121212"/>
<path d="M1286.24 454.279H1307.64V492.706C1307.64 498.615 1302.85 503.406 1296.94 503.406V503.406C1291.03 503.406 1286.24 498.615 1286.24 492.706V454.279Z" fill="black"/>
<rect x="1255.11" y="452.565" width="35.9927" height="32.5608" fill="black"/>
<path d="M1189.13 458.302C1189.13 452.371 1193.94 447.563 1199.87 447.563H1282.63V469.04H1199.87C1193.94 469.04 1189.13 464.233 1189.13 458.302V458.302Z" fill="#121212"/>
<rect x="1189.13" y="415.108" width="77.2599" height="21.477" rx="10.7385" fill="#121212"/>
<path d="M1189.13 392.439C1189.13 386.508 1193.94 381.7 1199.87 381.7H1286.57V403.177H1199.87C1193.94 403.177 1189.13 398.369 1189.13 392.439V392.439Z" fill="#121212"/>
<path d="M1377.71 458.301C1377.71 452.37 1382.51 447.562 1388.44 447.562H1433.31V469.039H1388.44C1382.51 469.039 1377.71 464.232 1377.71 458.301V458.301Z" fill="#121212"/>
<path d="M1377.71 392.439C1377.71 386.508 1382.51 381.7 1388.44 381.7H1433.31V403.177H1388.44C1382.51 403.177 1377.71 398.369 1377.71 392.439V392.439Z" fill="#121212"/>
<ellipse cx="1389.81" cy="425.37" rx="41.705" ry="43.6699" fill="#121212"/>
<rect x="1366.5" y="403.177" width="85.2038" height="44.3858" rx="22.1929" fill="black"/>
<rect x="1307.64" y="552.031" width="29.1832" height="139.383" rx="14.5916" fill="#121212"/>
<ellipse cx="1298.16" cy="675.134" rx="38.6678" ry="36.8451" fill="#121212"/>
<path d="M1286.24 638.289H1307.64V676.715C1307.64 682.625 1302.85 687.416 1296.94 687.416V687.416C1291.03 687.416 1286.24 682.625 1286.24 676.715V638.289Z" fill="black"/>
<rect x="1255.11" y="636.575" width="35.9927" height="32.5608" fill="black"/>
<path d="M1189.13 642.312C1189.13 636.382 1193.94 631.574 1199.87 631.574H1282.63V653.051H1199.87C1193.94 653.051 1189.13 648.243 1189.13 642.312V642.312Z" fill="#121212"/>
<rect x="1189.13" y="599.119" width="77.2599" height="21.477" rx="10.7385" fill="#121212"/>
<path d="M1189.13 576.449C1189.13 570.518 1193.94 565.71 1199.87 565.71H1286.57V587.187H1199.87C1193.94 587.187 1189.13 582.38 1189.13 576.449V576.449Z" fill="#121212"/>
<path d="M1377.71 642.311C1377.71 636.381 1382.51 631.573 1388.44 631.573H1433.31V653.05H1388.44C1382.51 653.05 1377.71 648.242 1377.71 642.311V642.311Z" fill="#121212"/>
<path d="M1377.71 576.449C1377.71 570.519 1382.51 565.711 1388.44 565.711H1433.31V587.188H1388.44C1382.51 587.188 1377.71 582.38 1377.71 576.449V576.449Z" fill="#121212"/>
<ellipse cx="1389.81" cy="609.381" rx="41.705" ry="43.6699" fill="#121212"/>
<rect x="1366.5" y="587.188" width="85.2038" height="44.3858" rx="22.1929" fill="black"/>
<rect x="1307.64" y="736.042" width="29.1832" height="139.383" rx="14.5916" fill="#121212"/>
<ellipse cx="1298.16" cy="859.144" rx="38.6678" ry="36.8451" fill="#121212"/>
<path d="M1286.24 822.299H1307.64V860.725C1307.64 866.635 1302.85 871.426 1296.94 871.426V871.426C1291.03 871.426 1286.24 866.635 1286.24 860.725V822.299Z" fill="black"/>
<rect x="1255.11" y="820.585" width="35.9927" height="32.5608" fill="black"/>
<path d="M1189.13 826.322C1189.13 820.392 1193.94 815.584 1199.87 815.584H1282.63V837.061H1199.87C1193.94 837.061 1189.13 832.253 1189.13 826.322V826.322Z" fill="#121212"/>
<rect x="1189.13" y="783.13" width="77.2599" height="21.477" rx="10.7385" fill="#121212"/>
<path d="M1189.13 760.46C1189.13 754.529 1193.94 749.721 1199.87 749.721H1286.57V771.198H1199.87C1193.94 771.198 1189.13 766.39 1189.13 760.46V760.46Z" fill="#121212"/>
<path d="M1377.71 826.322C1377.71 820.392 1382.51 815.584 1388.44 815.584H1433.31V837.061H1388.44C1382.51 837.061 1377.71 832.253 1377.71 826.322V826.322Z" fill="#121212"/>
<path d="M1377.71 760.46C1377.71 754.529 1382.51 749.721 1388.44 749.721H1433.31V771.198H1388.44C1382.51 771.198 1377.71 766.39 1377.71 760.46V760.46Z" fill="#121212"/>
<ellipse cx="1389.81" cy="793.391" rx="41.705" ry="43.6699" fill="#121212"/>
<rect x="1366.5" y="771.199" width="85.2038" height="44.3858" rx="22.1929" fill="black"/>
<rect x="1307.64" y="920.052" width="29.1832" height="139.383" rx="14.5916" fill="#121212"/>
<ellipse cx="1298.16" cy="1043.15" rx="38.6678" ry="36.8451" fill="#121212"/>
<path d="M1286.24 1006.31H1307.64V1044.74C1307.64 1050.65 1302.85 1055.44 1296.94 1055.44V1055.44C1291.03 1055.44 1286.24 1050.65 1286.24 1044.74V1006.31Z" fill="black"/>
<rect x="1255.11" y="1004.6" width="35.9927" height="32.5608" fill="black"/>
<path d="M1189.13 1010.33C1189.13 1004.4 1193.94 999.595 1199.87 999.595H1282.63V1021.07H1199.87C1193.94 1021.07 1189.13 1016.26 1189.13 1010.33V1010.33Z" fill="#121212"/>
<rect x="1189.13" y="967.141" width="77.2599" height="21.477" rx="10.7385" fill="#121212"/>
<path d="M1189.13 944.471C1189.13 938.54 1193.94 933.732 1199.87 933.732H1286.57V955.209H1199.87C1193.94 955.209 1189.13 950.402 1189.13 944.471V944.471Z" fill="#121212"/>
<path d="M1377.71 1010.33C1377.71 1004.4 1382.51 999.595 1388.44 999.595H1433.31V1021.07H1388.44C1382.51 1021.07 1377.71 1016.26 1377.71 1010.33V1010.33Z" fill="#121212"/>
<path d="M1377.71 944.47C1377.71 938.54 1382.51 933.732 1388.44 933.732H1433.31V955.209H1388.44C1382.51 955.209 1377.71 950.401 1377.71 944.47V944.47Z" fill="#121212"/>
<ellipse cx="1389.81" cy="977.402" rx="41.705" ry="43.6699" fill="#121212"/>
<rect x="1366.5" y="955.209" width="85.2038" height="44.3858" rx="22.1929" fill="black"/>
<rect x="1578.59" width="29.1832" height="139.383" rx="14.5916" fill="#121212"/>
<ellipse cx="1569.11" cy="123.103" rx="38.6678" ry="36.8451" fill="#121212"/>
<path d="M1557.19 86.2578H1578.59V124.684C1578.59 130.594 1573.8 135.385 1567.89 135.385V135.385C1561.98 135.385 1557.19 130.594 1557.19 124.684V86.2578Z" fill="black"/>
<rect x="1526.06" y="84.5439" width="35.9927" height="32.5608" fill="black"/>
<path d="M1460.08 90.2815C1460.08 84.3508 1464.89 79.543 1470.82 79.543H1553.58V101.02H1470.82C1464.89 101.02 1460.08 96.2122 1460.08 90.2815V90.2815Z" fill="#121212"/>
<rect x="1460.08" y="47.0879" width="77.2599" height="21.477" rx="10.7385" fill="#121212"/>
<path d="M1460.08 24.4182C1460.08 18.4875 1464.89 13.6797 1470.82 13.6797H1557.51V35.1567H1470.82C1464.89 35.1567 1460.08 30.3489 1460.08 24.4182V24.4182Z" fill="#121212"/>
<path d="M1648.65 90.2805C1648.65 84.3498 1653.46 79.542 1659.39 79.542H1704.26V101.019H1659.39C1653.46 101.019 1648.65 96.2112 1648.65 90.2805V90.2805Z" fill="#121212"/>
<path d="M1648.65 24.4182C1648.65 18.4875 1653.46 13.6797 1659.39 13.6797H1704.26V35.1567H1659.39C1653.46 35.1567 1648.65 30.3489 1648.65 24.4182V24.4182Z" fill="#121212"/>
<ellipse cx="1660.76" cy="57.3496" rx="41.705" ry="43.6699" fill="#121212"/>
<rect x="1637.44" y="35.1562" width="85.2038" height="44.3858" rx="22.1929" fill="black"/>
<rect x="1578.59" y="184.01" width="29.1832" height="139.383" rx="14.5916" fill="#121212"/>
<ellipse cx="1569.11" cy="307.113" rx="38.6678" ry="36.8451" fill="#121212"/>
<path d="M1557.19 270.268H1578.59V308.694C1578.59 314.604 1573.8 319.394 1567.89 319.394V319.394C1561.98 319.394 1557.19 314.604 1557.19 308.694V270.268Z" fill="black"/>
<rect x="1526.06" y="268.554" width="35.9927" height="32.5608" fill="black"/>
<path d="M1460.08 274.291C1460.08 268.361 1464.89 263.553 1470.82 263.553H1553.58V285.03H1470.82C1464.89 285.03 1460.08 280.222 1460.08 274.291V274.291Z" fill="#121212"/>
<rect x="1460.08" y="231.098" width="77.2599" height="21.477" rx="10.7385" fill="#121212"/>
<path d="M1460.08 208.428C1460.08 202.497 1464.89 197.689 1470.82 197.689H1557.51V219.166H1470.82C1464.89 219.166 1460.08 214.359 1460.08 208.428V208.428Z" fill="#121212"/>
<path d="M1648.65 274.29C1648.65 268.36 1653.46 263.552 1659.39 263.552H1704.26V285.029H1659.39C1653.46 285.029 1648.65 280.221 1648.65 274.29V274.29Z" fill="#121212"/>
<path d="M1648.65 208.428C1648.65 202.497 1653.46 197.689 1659.39 197.689H1704.26V219.166H1659.39C1653.46 219.166 1648.65 214.359 1648.65 208.428V208.428Z" fill="#121212"/>
<ellipse cx="1660.76" cy="241.359" rx="41.705" ry="43.6699" fill="#121212"/>
<rect x="1637.44" y="219.166" width="85.2038" height="44.3858" rx="22.1929" fill="black"/>
<rect x="1578.59" y="368.021" width="29.1832" height="139.383" rx="14.5916" fill="#121212"/>
<ellipse cx="1569.11" cy="491.124" rx="38.6678" ry="36.8451" fill="#121212"/>
<path d="M1557.19 454.279H1578.59V492.706C1578.59 498.615 1573.8 503.406 1567.89 503.406V503.406C1561.98 503.406 1557.19 498.615 1557.19 492.706V454.279Z" fill="black"/>
<rect x="1526.06" y="452.565" width="35.9927" height="32.5608" fill="black"/>
<path d="M1460.08 458.302C1460.08 452.371 1464.89 447.563 1470.82 447.563H1553.58V469.04H1470.82C1464.89 469.04 1460.08 464.233 1460.08 458.302V458.302Z" fill="#121212"/>
<rect x="1460.08" y="415.108" width="77.2599" height="21.477" rx="10.7385" fill="#121212"/>
<path d="M1460.08 392.439C1460.08 386.508 1464.89 381.7 1470.82 381.7H1557.51V403.177H1470.82C1464.89 403.177 1460.08 398.369 1460.08 392.439V392.439Z" fill="#121212"/>
<path d="M1648.65 458.301C1648.65 452.37 1653.46 447.562 1659.39 447.562H1704.26V469.039H1659.39C1653.46 469.039 1648.65 464.232 1648.65 458.301V458.301Z" fill="#121212"/>
<path d="M1648.65 392.439C1648.65 386.508 1653.46 381.7 1659.39 381.7H1704.26V403.177H1659.39C1653.46 403.177 1648.65 398.369 1648.65 392.439V392.439Z" fill="#121212"/>
<ellipse cx="1660.76" cy="425.37" rx="41.705" ry="43.6699" fill="#121212"/>
<rect x="1637.44" y="403.177" width="85.2038" height="44.3858" rx="22.1929" fill="black"/>
<rect x="1578.59" y="552.032" width="29.1832" height="139.383" rx="14.5916" fill="#121212"/>
<ellipse cx="1569.11" cy="675.135" rx="38.6678" ry="36.8451" fill="#121212"/>
<path d="M1557.19 638.29H1578.59V676.716C1578.59 682.626 1573.8 687.416 1567.89 687.416V687.416C1561.98 687.416 1557.19 682.626 1557.19 676.716V638.29Z" fill="black"/>
<rect x="1526.06" y="636.576" width="35.9927" height="32.5608" fill="black"/>
<path d="M1460.08 642.313C1460.08 636.382 1464.89 631.574 1470.82 631.574H1553.58V653.051H1470.82C1464.89 653.051 1460.08 648.243 1460.08 642.313V642.313Z" fill="#121212"/>
<rect x="1460.08" y="599.12" width="77.2599" height="21.477" rx="10.7385" fill="#121212"/>
<path d="M1460.08 576.449C1460.08 570.519 1464.89 565.711 1470.82 565.711H1557.51V587.188H1470.82C1464.89 587.188 1460.08 582.38 1460.08 576.449V576.449Z" fill="#121212"/>
<path d="M1648.65 642.311C1648.65 636.381 1653.46 631.573 1659.39 631.573H1704.26V653.05H1659.39C1653.46 653.05 1648.65 648.242 1648.65 642.311V642.311Z" fill="#121212"/>
<path d="M1648.65 576.449C1648.65 570.519 1653.46 565.711 1659.39 565.711H1704.26V587.188H1659.39C1653.46 587.188 1648.65 582.38 1648.65 576.449V576.449Z" fill="#121212"/>
<ellipse cx="1660.76" cy="609.381" rx="41.705" ry="43.6699" fill="#121212"/>
<rect x="1637.44" y="587.188" width="85.2038" height="44.3858" rx="22.1929" fill="black"/>
<rect x="1578.59" y="736.042" width="29.1832" height="139.383" rx="14.5916" fill="#121212"/>
<ellipse cx="1569.11" cy="859.144" rx="38.6678" ry="36.8451" fill="#121212"/>
<path d="M1557.19 822.299H1578.59V860.725C1578.59 866.635 1573.8 871.426 1567.89 871.426V871.426C1561.98 871.426 1557.19 866.635 1557.19 860.725V822.299Z" fill="black"/>
<rect x="1526.06" y="820.585" width="35.9927" height="32.5608" fill="black"/>
<path d="M1460.08 826.322C1460.08 820.392 1464.89 815.584 1470.82 815.584H1553.58V837.061H1470.82C1464.89 837.061 1460.08 832.253 1460.08 826.322V826.322Z" fill="#121212"/>
<rect x="1460.08" y="783.13" width="77.2599" height="21.477" rx="10.7385" fill="#121212"/>
<path d="M1460.08 760.46C1460.08 754.529 1464.89 749.721 1470.82 749.721H1557.51V771.198H1470.82C1464.89 771.198 1460.08 766.39 1460.08 760.46V760.46Z" fill="#121212"/>
<path d="M1648.65 826.322C1648.65 820.392 1653.46 815.584 1659.39 815.584H1704.26V837.061H1659.39C1653.46 837.061 1648.65 832.253 1648.65 826.322V826.322Z" fill="#121212"/>
<path d="M1648.65 760.46C1648.65 754.529 1653.46 749.721 1659.39 749.721H1704.26V771.198H1659.39C1653.46 771.198 1648.65 766.39 1648.65 760.46V760.46Z" fill="#121212"/>
<ellipse cx="1660.76" cy="793.391" rx="41.705" ry="43.6699" fill="#121212"/>
<rect x="1637.44" y="771.199" width="85.2038" height="44.3858" rx="22.1929" fill="black"/>
<rect x="1578.59" y="920.053" width="29.1832" height="139.383" rx="14.5916" fill="#121212"/>
<ellipse cx="1569.11" cy="1043.16" rx="38.6678" ry="36.8451" fill="#121212"/>
<path d="M1557.19 1006.31H1578.59V1044.74C1578.59 1050.65 1573.8 1055.44 1567.89 1055.44V1055.44C1561.98 1055.44 1557.19 1050.65 1557.19 1044.74V1006.31Z" fill="black"/>
<rect x="1526.06" y="1004.6" width="35.9927" height="32.5608" fill="black"/>
<path d="M1460.08 1010.33C1460.08 1004.4 1464.89 999.595 1470.82 999.595H1553.58V1021.07H1470.82C1464.89 1021.07 1460.08 1016.26 1460.08 1010.33V1010.33Z" fill="#121212"/>
<rect x="1460.08" y="967.141" width="77.2599" height="21.477" rx="10.7385" fill="#121212"/>
<path d="M1460.08 944.471C1460.08 938.54 1464.89 933.732 1470.82 933.732H1557.51V955.209H1470.82C1464.89 955.209 1460.08 950.402 1460.08 944.471V944.471Z" fill="#121212"/>
<path d="M1648.65 1010.33C1648.65 1004.4 1653.46 999.595 1659.39 999.595H1704.26V1021.07H1659.39C1653.46 1021.07 1648.65 1016.26 1648.65 1010.33V1010.33Z" fill="#121212"/>
<path d="M1648.65 944.471C1648.65 938.54 1653.46 933.732 1659.39 933.732H1704.26V955.209H1659.39C1653.46 955.209 1648.65 950.402 1648.65 944.471V944.471Z" fill="#121212"/>
<ellipse cx="1660.76" cy="977.402" rx="41.705" ry="43.6699" fill="#121212"/>
<rect x="1637.44" y="955.21" width="85.2038" height="44.3858" rx="22.1929" fill="black"/>
<rect x="1843.95" width="29.1832" height="139.383" rx="14.5916" fill="#121212"/>
<ellipse cx="1834.46" cy="123.103" rx="38.6678" ry="36.8451" fill="#121212"/>
<path d="M1822.54 86.2578H1843.94V124.684C1843.94 130.594 1839.15 135.385 1833.24 135.385V135.385C1827.33 135.385 1822.54 130.594 1822.54 124.684V86.2578Z" fill="black"/>
<rect x="1791.41" y="84.5439" width="35.9927" height="32.5608" fill="black"/>
<path d="M1725.44 90.2815C1725.44 84.3508 1730.24 79.543 1736.17 79.543H1818.93V101.02H1736.17C1730.24 101.02 1725.44 96.2122 1725.44 90.2815V90.2815Z" fill="#121212"/>
<rect x="1725.44" y="47.0879" width="77.2599" height="21.477" rx="10.7385" fill="#121212"/>
<path d="M1725.44 24.4182C1725.44 18.4875 1730.24 13.6797 1736.17 13.6797H1822.87V35.1567H1736.17C1730.24 35.1567 1725.44 30.3489 1725.44 24.4182V24.4182Z" fill="#121212"/>
<path d="M1914.01 90.2805C1914.01 84.3498 1918.81 79.542 1924.74 79.542H1969.61V101.019H1924.74C1918.81 101.019 1914.01 96.2112 1914.01 90.2805V90.2805Z" fill="#121212"/>
<path d="M1914.01 24.4182C1914.01 18.4875 1918.81 13.6797 1924.74 13.6797H1969.61V35.1567H1924.74C1918.81 35.1567 1914.01 30.3489 1914.01 24.4182V24.4182Z" fill="#121212"/>
<ellipse cx="1926.12" cy="57.3496" rx="41.705" ry="43.6699" fill="#121212"/>
<rect x="1902.8" y="35.1562" width="85.2038" height="44.3858" rx="22.1929" fill="black"/>
<rect x="1843.95" y="184.01" width="29.1832" height="139.383" rx="14.5916" fill="#121212"/>
<ellipse cx="1834.46" cy="307.113" rx="38.6678" ry="36.8451" fill="#121212"/>
<path d="M1822.54 270.268H1843.95V308.694C1843.95 314.604 1839.16 319.394 1833.25 319.394V319.394C1827.34 319.394 1822.54 314.604 1822.54 308.694V270.268Z" fill="black"/>
<rect x="1791.42" y="268.554" width="35.9927" height="32.5608" fill="black"/>
<path d="M1725.44 274.291C1725.44 268.361 1730.25 263.553 1736.18 263.553H1818.94V285.03H1736.18C1730.25 285.03 1725.44 280.222 1725.44 274.291V274.291Z" fill="#121212"/>
<rect x="1725.44" y="231.098" width="77.2599" height="21.477" rx="10.7385" fill="#121212"/>
<path d="M1725.44 208.428C1725.44 202.497 1730.25 197.689 1736.18 197.689H1822.87V219.166H1736.18C1730.25 219.166 1725.44 214.359 1725.44 208.428V208.428Z" fill="#121212"/>
<path d="M1914.01 274.29C1914.01 268.36 1918.82 263.552 1924.75 263.552H1969.61V285.029H1924.75C1918.82 285.029 1914.01 280.221 1914.01 274.29V274.29Z" fill="#121212"/>
<path d="M1914.01 208.428C1914.01 202.497 1918.82 197.689 1924.75 197.689H1969.61V219.166H1924.75C1918.82 219.166 1914.01 214.359 1914.01 208.428V208.428Z" fill="#121212"/>
<ellipse cx="1926.12" cy="241.359" rx="41.705" ry="43.6699" fill="#121212"/>
<rect x="1902.8" y="219.166" width="85.2038" height="44.3858" rx="22.1929" fill="black"/>
<rect x="1843.95" y="552.031" width="29.1832" height="139.383" rx="14.5916" fill="#121212"/>
<ellipse cx="1834.46" cy="675.134" rx="38.6678" ry="36.8451" fill="#121212"/>
<path d="M1822.55 638.289H1843.95V676.715C1843.95 682.625 1839.16 687.416 1833.25 687.416V687.416C1827.34 687.416 1822.55 682.625 1822.55 676.715V638.289Z" fill="black"/>
<rect x="1791.42" y="636.575" width="35.9927" height="32.5608" fill="black"/>
<path d="M1725.44 642.312C1725.44 636.382 1730.25 631.574 1736.18 631.574H1818.94V653.051H1736.18C1730.25 653.051 1725.44 648.243 1725.44 642.312V642.312Z" fill="#121212"/>
<rect x="1725.44" y="599.119" width="77.2599" height="21.477" rx="10.7385" fill="#121212"/>
<path d="M1725.44 576.449C1725.44 570.518 1730.25 565.71 1736.18 565.71H1822.87V587.187H1736.18C1730.25 587.187 1725.44 582.38 1725.44 576.449V576.449Z" fill="#121212"/>
<path d="M1914.01 642.311C1914.01 636.381 1918.82 631.573 1924.75 631.573H1969.61V653.05H1924.75C1918.82 653.05 1914.01 648.242 1914.01 642.311V642.311Z" fill="#121212"/>
<path d="M1914.01 576.449C1914.01 570.519 1918.82 565.711 1924.75 565.711H1969.61V587.188H1924.75C1918.82 587.188 1914.01 582.38 1914.01 576.449V576.449Z" fill="#121212"/>
<ellipse cx="1926.12" cy="609.381" rx="41.705" ry="43.6699" fill="#121212"/>
<rect x="1902.8" y="587.188" width="85.2038" height="44.3858" rx="22.1929" fill="black"/>
<rect x="1843.95" y="736.042" width="29.1832" height="139.383" rx="14.5916" fill="#121212"/>
<ellipse cx="1834.46" cy="859.144" rx="38.6678" ry="36.8451" fill="#121212"/>
<path d="M1822.54 822.299H1843.95V860.725C1843.95 866.635 1839.16 871.426 1833.25 871.426V871.426C1827.34 871.426 1822.54 866.635 1822.54 860.725V822.299Z" fill="black"/>
<rect x="1791.42" y="820.585" width="35.9927" height="32.5608" fill="black"/>
<path d="M1725.44 826.322C1725.44 820.392 1730.25 815.584 1736.18 815.584H1818.94V837.061H1736.18C1730.25 837.061 1725.44 832.253 1725.44 826.322V826.322Z" fill="#121212"/>
<rect x="1725.44" y="783.13" width="77.2599" height="21.477" rx="10.7385" fill="#121212"/>
<path d="M1725.44 760.46C1725.44 754.529 1730.25 749.721 1736.18 749.721H1822.87V771.198H1736.18C1730.25 771.198 1725.44 766.39 1725.44 760.46V760.46Z" fill="#121212"/>
<path d="M1914.01 826.322C1914.01 820.392 1918.82 815.584 1924.75 815.584H1969.61V837.061H1924.75C1918.82 837.061 1914.01 832.253 1914.01 826.322V826.322Z" fill="#121212"/>
<path d="M1914.01 760.46C1914.01 754.529 1918.82 749.721 1924.75 749.721H1969.61V771.198H1924.75C1918.82 771.198 1914.01 766.39 1914.01 760.46V760.46Z" fill="#121212"/>
<ellipse cx="1926.12" cy="793.391" rx="41.705" ry="43.6699" fill="#121212"/>
<rect x="1902.8" y="771.199" width="85.2038" height="44.3858" rx="22.1929" fill="black"/>
<rect x="1843.95" y="920.052" width="29.1832" height="139.383" rx="14.5916" fill="#121212"/>
<ellipse cx="1834.46" cy="1043.15" rx="38.6678" ry="36.8451" fill="#121212"/>
<path d="M1822.55 1006.31H1843.95V1044.74C1843.95 1050.65 1839.16 1055.44 1833.25 1055.44V1055.44C1827.34 1055.44 1822.55 1050.65 1822.55 1044.74V1006.31Z" fill="black"/>
<rect x="1791.42" y="1004.6" width="35.9927" height="32.5608" fill="black"/>
<path d="M1725.44 1010.33C1725.44 1004.4 1730.25 999.595 1736.18 999.595H1818.94V1021.07H1736.18C1730.25 1021.07 1725.44 1016.26 1725.44 1010.33V1010.33Z" fill="#121212"/>
<rect x="1725.44" y="967.141" width="77.2599" height="21.477" rx="10.7385" fill="#121212"/>
<path d="M1725.44 944.471C1725.44 938.54 1730.25 933.732 1736.18 933.732H1822.87V955.209H1736.18C1730.25 955.209 1725.44 950.402 1725.44 944.471V944.471Z" fill="#121212"/>
<path d="M1914.01 1010.33C1914.01 1004.4 1918.82 999.595 1924.75 999.595H1969.61V1021.07H1924.75C1918.82 1021.07 1914.01 1016.26 1914.01 1010.33V1010.33Z" fill="#121212"/>
<path d="M1914.01 944.47C1914.01 938.54 1918.82 933.732 1924.75 933.732H1969.61V955.209H1924.75C1918.82 955.209 1914.01 950.401 1914.01 944.47V944.47Z" fill="#121212"/>
<ellipse cx="1926.12" cy="977.402" rx="41.705" ry="43.6699" fill="#121212"/>
<rect x="1902.8" y="955.209" width="85.2038" height="44.3858" rx="22.1929" fill="black"/>
</g>
<defs>
<clipPath id="clip0_334_2">
<rect width="1920" height="1080" fill="white"/>
</clipPath>
</defs>
</svg>
