<svg width="101" height="101" viewBox="0 0 101 101" fill="none" xmlns="http://www.w3.org/2000/svg">
<rect width="101" height="101" fill="black"/>
<rect x="59.5957" y="34" width="4.88837" height="22.657" rx="2.44419" fill="#FF2626"/>
<ellipse cx="58.0064" cy="54.0107" rx="6.4771" ry="5.98926" fill="#FF2626"/>
<rect x="56.0098" y="48.0215" width="3.58481" height="7.98568" rx="1.7924" fill="black"/>
<rect x="51.1221" y="47.8359" width="8.47318" height="5.01426" fill="black"/>
<rect x="71.8975" y="48.834" width="10.1026" height="4.20139" rx="2.10069" fill="white"/>
<rect x="71.8975" y="35.9492" width="10.1026" height="4.20139" rx="2.10069" fill="white"/>
<path d="M71.9792 44.492C71.9792 49.2101 78.2821 53.0349 74.0975 53.0349C69.9128 53.0349 66.5205 49.2101 66.5205 44.492C66.5205 39.774 69.9128 35.9492 74.0975 35.9492C78.2821 35.9492 71.9792 39.774 71.9792 44.492Z" fill="white"/>
<rect x="70.0234" y="40.127" width="6.9252" height="8.72853" rx="3.4626" fill="black"/>
<path d="M19 43.5993C19 42.4722 19.9136 41.5586 21.0407 41.5586H50.5837C51.7107 41.5586 52.6244 42.4722 52.6244 43.5993V43.5993C52.6244 44.7263 51.7107 45.64 50.5837 45.64H21.0407C19.9136 45.64 19 44.7263 19 43.5993V43.5993Z" fill="#FF2626"/>
<path d="M40.4854 37.1108C40.4854 35.9569 41.4208 35.0215 42.5746 35.0215H56.617V39.2H42.5746C41.4208 39.2 40.4854 38.2646 40.4854 37.1108V37.1108Z" fill="white"/>
<path d="M40.6064 49.9252C40.6064 48.7713 41.5418 47.8359 42.6957 47.8359H56.0863V52.0145H42.6957C41.5418 52.0145 40.6064 51.0791 40.6064 49.9252V49.9252Z" fill="white"/>
<rect x="32" y="71" width="41" height="4" rx="2" transform="rotate(-90 32 71)" fill="#FF2626"/>
</svg>
